# xmcd
#
# Track frame offsets:
#	150
#	13964
#	27068
#	43156
#	55003
#	68464
#	78727
#	81975
#	95216
#	110508
#	120962
#	138173
#	155534
#	164517
#	176674
#
# Disc length: 2524 seconds
#
# Revision: 0
# Processed by: cddbd v1.5.1PL0 Copyright (c) Steve Scherf et al.
# Submitted via: dBpowerAMP V4.0
#
DISCID=c309da0f
DTITLE=Irena Jarocka - W cieniu dobrego drzewa
DYEAR=1900
DGENRE=Blues
TTITLE0=SPIEWAM POD GOLYM NIEBEM
TTITLE1=MOTYLEM JESTEM
TTITLE2=ZGUBILAM TO WSZYSTKO
TTITLE3=CO MNIE W TOBIE ZACHWYCILO
TTITLE4=WYMYSLILAM CIE
TTITLE5=WIERZA W SIEBIE ZAKOCHANI
TTITLE6=POZEGNANIE O SWICIE
TTITLE7=NIE WROCA TE LATA
TTITLE8=W CIENIU DOBREGO DRZEWA
TTITLE9=TY I JA - WCZORAJ I DZIS
TTITLE10=TE LINIE TE KOLA
TTITLE11=POLONINY NIEBIESKIE
TTITLE12=POZEGNANIE OSWICIE
TTITLE13=NA ZLOTYM WYBRZEZU
TTITLE14=KOCHAM
EXTD=
EXTT0=
EXTT1=
EXTT2=
EXTT3=
EXTT4=
EXTT5=
EXTT6=
EXTT7=
EXTT8=
EXTT9=
EXTT10=
EXTT11=
EXTT12=
EXTT13=
EXTT14=
PLAYORDER=
